<?xml version="1.0" standalone="no"?>
<!DOCTYPE svg PUBLIC "-//W3C//DTD SVG 20010904//EN"
 "http://www.w3.org/TR/2001/REC-SVG-20010904/DTD/svg10.dtd">
<svg version="1.0" xmlns="http://www.w3.org/2000/svg"
 width="500.000000pt" height="500.000000pt" viewBox="0 0 500.000000 500.000000"
 preserveAspectRatio="xMidYMid meet">

<g transform="translate(0.000000,500.000000) scale(0.100000,-0.100000)"
fill="#000000" stroke="none">
<path d="M2330 3653 c-121 -11 -207 -28 -297 -58 -354 -118 -627 -359 -754
-667 -48 -117 -35 -138 56 -93 51 25 59 33 94 103 80 157 210 302 375 414 166
114 436 188 686 187 136 0 223 -16 393 -73 154 -51 169 -53 227 -30 51 20 66
45 42 67 -51 47 -271 122 -417 142 -89 13 -312 18 -405 8z m435 -36 c33 -8 87
-22 120 -32 67 -19 235 -94 235 -105 0 -4 -14 -13 -31 -20 -27 -12 -38 -11
-78 4 -257 100 -364 120 -571 113 -191 -7 -353 -41 -486 -102 -33 -15 -77 -35
-99 -45 -154 -68 -430 -356 -475 -497 -7 -21 -17 -43 -22 -50 -12 -16 -66 -34
-72 -24 -8 12 75 189 117 252 57 86 220 245 314 306 165 108 373 186 568 212
97 13 406 5 480 -12z"/>
<path d="M3842 3588 c-27 -27 -4 -98 32 -98 13 0 46 31 46 43 0 4 -9 2 -21 -5
-18 -11 -23 -10 -40 11 -10 13 -19 27 -19 32 0 16 50 22 67 8 14 -12 16 -12
11 1 -6 19 -59 25 -76 8z"/>
<path d="M3860 3566 c0 -18 17 -29 30 -21 8 5 7 11 -1 21 -15 18 -29 18 -29 0z"/>
<path d="M3555 3511 c-22 -10 -49 -28 -60 -41 -19 -21 -18 -21 18 3 20 14 56
28 78 32 38 7 144 -1 161 -12 5 -2 1 -17 -7 -33 -15 -29 -17 -29 -73 -24 -31
3 -68 2 -81 -4 -20 -7 -8 -10 60 -16 78 -6 85 -5 102 15 9 12 17 34 17 49 0
22 -6 30 -31 39 -49 17 -139 13 -184 -8z"/>
<path d="M2520 3411 c-161 -56 -203 -72 -400 -151 -105 -42 -259 -95 -392
-135 -47 -14 -91 -32 -98 -40 -19 -22 -8 -70 16 -73 11 -2 88 22 170 52 82 30
230 85 329 121 99 37 266 93 370 126 178 56 225 79 225 110 0 11 -37 49 -47
48 -5 0 -82 -26 -173 -58z m177 13 c3 -10 -295 -124 -324 -124 -7 0 -13 6 -13
14 0 14 13 20 130 60 41 14 98 34 125 45 53 22 76 23 82 5z m-379 -130 c-2
-10 -29 -26 -68 -39 -36 -13 -155 -56 -265 -96 -341 -122 -335 -121 -335 -100
0 13 31 28 138 64 320 109 370 127 432 155 75 35 103 39 98 16z"/>
<path d="M3210 3396 c-14 -7 -72 -28 -130 -46 -158 -49 -153 -47 -146 -76 8
-30 169 -338 196 -373 21 -29 25 -28 208 36 119 42 137 60 106 109 -10 16 -19
30 -19 31 -1 2 -37 -10 -81 -27 -91 -33 -86 -40 8 -10 34 11 66 20 69 20 8 0
31 -52 25 -57 -6 -6 -286 -103 -297 -103 -10 0 -94 148 -118 207 -10 27 -36
79 -56 116 -27 49 -33 68 -23 71 7 3 70 23 140 45 70 22 136 44 146 50 15 8
22 4 36 -21 10 -16 14 -33 10 -38 -5 -4 -54 -22 -109 -40 -55 -18 -104 -36
-109 -40 -4 -5 -4 -16 1 -25 9 -15 11 -15 16 -2 3 9 48 28 105 46 55 17 105
37 111 45 9 11 8 23 -5 55 -18 45 -38 51 -84 27z"/>
<path d="M3574 3356 c15 -12 44 -16 117 -16 54 0 109 -4 123 -10 54 -20 81
-105 54 -165 -15 -32 -91 -73 -152 -81 -59 -8 -156 21 -156 47 0 10 5 21 10
24 6 3 10 12 10 18 0 7 -10 -3 -21 -21 -12 -18 -18 -39 -15 -48 18 -46 180
-60 256 -21 62 31 90 76 90 144 0 49 -4 59 -34 89 l-34 34 -112 0 c-61 0 -121
5 -133 11 -21 10 -21 10 -3 -5z"/>
<path d="M3465 3336 c16 -80 66 -103 195 -88 l85 9 -88 2 c-54 0 -99 6 -115
15 -29 15 -66 52 -76 76 -3 8 -4 2 -1 -14z"/>
<path d="M2715 3236 c-51 -16 -55 -40 -20 -101 15 -25 28 -45 30 -45 2 0 -8
25 -22 56 -14 30 -23 56 -22 57 21 12 75 25 81 19 4 -4 50 -91 103 -195 l96
-187 -26 -10 c-38 -14 -35 -15 -158 49 -125 65 -224 107 -232 99 -3 -3 1 -21
9 -39 9 -22 15 -28 15 -15 1 10 6 16 14 13 6 -3 74 -33 149 -66 76 -34 151
-64 167 -67 35 -7 71 10 71 34 0 9 -23 60 -51 112 -27 52 -72 141 -99 198 -27
56 -53 102 -57 101 -5 -1 -26 -7 -48 -13z"/>
<path d="M3207 3199 c-104 -41 -93 -48 14 -9 79 30 84 30 97 13 24 -33 9 -47
-86 -82 -50 -19 -92 -38 -92 -44 0 -6 5 -5 13 1 7 6 43 18 81 28 38 9 80 27
93 39 25 21 25 22 9 53 -9 18 -24 32 -34 32 -9 -1 -52 -15 -95 -31z"/>
<path d="M3673 3163 c15 -2 37 -2 50 0 12 2 0 4 -28 4 -27 0 -38 -2 -22 -4z"/>
<path d="M2393 3133 c-18 -9 -33 -24 -33 -33 0 -9 40 -101 90 -203 101 -211
116 -227 174 -203 29 12 36 20 36 43 0 25 -42 103 -56 103 -2 0 7 -23 22 -51
14 -28 24 -52 22 -53 -11 -7 -60 -26 -68 -26 -11 0 -192 338 -202 378 -2 8 13
19 36 27 38 13 40 13 144 -41 57 -30 106 -53 108 -51 6 5 -213 127 -227 126
-8 0 -29 -8 -46 -16z"/>
<path d="M3915 2966 c-88 -36 -165 -73 -172 -83 -7 -12 -8 -26 -2 -42 8 -21
14 -23 52 -18 53 7 306 102 326 122 20 20 3 79 -24 83 -11 1 -92 -27 -180 -62z
m183 12 c3 -16 -31 -31 -212 -94 -93 -33 -132 -37 -124 -13 2 6 26 19 53 29
28 9 97 36 155 58 111 42 123 44 128 20z"/>
<path d="M3184 3001 c3 -5 15 -7 26 -4 28 7 25 13 -6 13 -14 0 -23 -4 -20 -9z"/>
<path d="M1992 2984 c-16 -11 -22 -24 -20 -47 l1 -32 4 32 c3 25 10 33 33 38
24 5 41 -3 114 -60 47 -36 88 -70 91 -75 3 -6 16 -15 28 -21 24 -12 29 -17
-116 109 -47 39 -91 72 -99 72 -7 0 -24 -7 -36 -16z"/>
<path d="M2761 2991 c-10 -6 -9 -10 5 -15 20 -8 25 -4 16 11 -4 7 -13 9 -21 4z"/>
<path d="M3473 2898 c-102 -38 -103 -40 -33 -185 46 -96 52 -103 79 -103 37 0
54 22 49 60 -5 36 12 40 49 10 73 -57 142 12 73 73 -24 22 -30 35 -30 67 0 46
-38 96 -80 104 -14 3 -60 -8 -107 -26z m127 -3 c39 -20 52 -48 44 -90 -5 -30
-2 -38 27 -65 28 -25 31 -32 19 -40 -22 -14 -28 -13 -66 16 -24 19 -41 25 -59
20 -26 -7 -29 -17 -16 -51 10 -22 -4 -45 -26 -45 -14 0 -120 206 -111 215 7 8
132 54 146 55 7 0 26 -7 42 -15z"/>
<path d="M3508 2838 c-27 -9 -27 -10 -13 -38 l15 -29 43 19 c40 19 49 36 24
52 -15 10 -35 9 -69 -4z"/>
<path d="M2060 2850 c0 -5 5 -10 11 -10 5 0 7 5 4 10 -3 6 -8 10 -11 10 -2 0
-4 -4 -4 -10z"/>
<path d="M3195 2802 c-62 -21 -81 -32 -82 -47 -2 -11 21 -67 50 -125 l52 -105
46 1 c60 0 143 41 147 72 5 31 -23 72 -48 72 -24 0 -40 35 -40 86 0 41 -15 74
-33 73 -7 0 -48 -13 -92 -27z m109 -7 c4 -11 -9 -22 -50 -40 -50 -22 -54 -26
-44 -45 13 -23 26 -25 60 -5 33 19 35 19 48 -9 10 -23 8 -25 -31 -38 -25 -8
-42 -19 -42 -28 0 -23 45 -23 90 0 37 19 41 19 52 3 23 -31 26 -29 -90 -69
l-67 -23 -50 99 c-28 55 -50 106 -50 113 0 13 107 54 146 56 12 1 24 -6 28
-14z"/>
<path d="M2053 2770 c0 -25 2 -35 4 -22 2 12 2 32 0 45 -2 12 -4 2 -4 -23z"/>
<path d="M2338 2736 c39 -37 72 -71 72 -76 0 -9 -54 -30 -76 -30 -8 0 -32 16
-54 36 l-39 36 -96 -32 -95 -32 2 -46 c1 -44 2 -44 5 -10 4 35 7 38 46 48 23
6 55 15 71 20 45 15 78 12 116 -11 55 -34 140 -25 140 15 0 14 -57 69 -120
116 -30 22 -21 11 28 -34z"/>
<path d="M1370 2777 c-14 -7 -26 -22 -28 -34 -3 -23 103 -290 144 -360 31 -54
44 -55 195 -7 134 42 159 56 159 89 0 13 -10 35 -22 50 l-23 25 -90 -34 c-49
-18 -94 -32 -101 -29 -6 2 -24 34 -39 71 -40 95 -95 204 -113 225 -18 20 -47
22 -82 4z m129 -122 c34 -69 61 -127 61 -130 0 -3 6 -21 14 -40 l14 -33 89 28
c48 15 96 31 105 35 12 5 21 -1 32 -24 9 -16 16 -32 16 -35 0 -3 -64 -26 -142
-50 l-143 -46 -17 22 c-9 12 -31 56 -49 98 -18 41 -54 119 -81 174 -27 54 -48
99 -46 101 3 3 67 22 80 24 3 1 34 -55 67 -124z"/>
<path d="M1960 2728 c0 -13 -5 -67 -10 -120 -10 -108 -7 -128 22 -128 24 0 78
28 78 40 0 13 0 13 -50 -5 l-43 -15 7 125 c4 69 5 125 2 125 -3 0 -6 -10 -6
-22z"/>
<path d="M2905 2709 c-51 -14 -87 -61 -93 -118 -6 -62 9 -101 53 -140 48 -42
94 -47 159 -18 68 31 93 76 76 138 -6 23 -22 51 -34 63 -13 11 -26 30 -30 42
-12 38 -67 52 -131 33z m104 -18 c10 -6 11 -13 3 -27 -8 -14 -20 -18 -50 -15
-25 1 -43 -2 -48 -11 -4 -7 -4 -10 1 -6 11 10 45 -10 45 -27 0 -12 8 -12 51 1
60 18 68 13 76 -45 5 -36 2 -44 -27 -71 -17 -16 -49 -35 -69 -41 -80 -24 -171
48 -171 135 0 31 7 45 39 77 34 35 44 39 87 39 27 0 55 -4 63 -9z"/>
<path d="M2998 2563 c-10 -2 -18 -13 -18 -24 0 -11 -10 -24 -22 -29 l-23 -9
23 0 c32 -1 83 30 80 48 -3 16 -15 21 -40 14z"/>
<path d="M995 2640 c-38 -11 -92 -25 -120 -32 -96 -23 -97 -32 -5 -239 39 -88
70 -163 70 -168 0 -4 9 -20 21 -35 27 -34 68 -34 108 0 36 30 38 47 11 92 -11
18 -20 37 -20 42 0 5 26 16 57 25 98 29 132 51 155 102 17 39 18 51 8 91 -15
62 -42 96 -93 121 -53 26 -100 26 -192 1z m194 -25 c83 -43 100 -151 31 -208
-16 -14 -65 -37 -109 -52 l-81 -27 14 -31 c7 -18 19 -44 26 -60 16 -34 5 -48
-40 -50 -30 -2 -33 1 -62 68 -17 39 -54 121 -84 183 -58 122 -63 142 -37 142
9 0 30 4 47 9 176 54 232 59 295 26z"/>
<path d="M993 2548 c-29 -11 -53 -24 -53 -27 0 -4 7 -16 15 -27 10 -12 14 -14
13 -5 -3 17 52 39 118 48 47 6 77 -15 72 -51 -4 -26 -81 -67 -132 -69 -23 -1
-36 -7 -36 -16 0 -9 8 -11 28 -7 122 30 152 50 152 101 0 71 -76 93 -177 53z"/>
<path d="M2556 2584 c-24 -24 -24 -292 0 -301 21 -8 48 9 52 31 3 15 1 16 -18
6 -18 -10 -24 -9 -32 1 -8 13 -1 235 9 252 10 17 34 2 126 -84 95 -89 97 -92
77 -106 -19 -13 -23 -13 -39 1 -16 15 -25 15 -64 5 -48 -12 -76 -32 -59 -43 6
-3 12 1 16 9 7 19 53 19 101 -1 33 -14 39 -14 61 1 13 8 24 20 24 26 0 14
-212 218 -227 219 -6 0 -19 -7 -27 -16z"/>
<path d="M3640 2566 c-41 -15 -53 -36 -75 -135 -62 -273 -284 -508 -597 -632
-163 -64 -466 -88 -690 -55 -118 18 -211 47 -308 96 -36 18 -94 44 -130 57
l-65 25 -52 -29 c-29 -15 -53 -33 -53 -40 0 -18 63 -65 147 -110 108 -57 267
-110 403 -135 149 -26 402 -29 538 -4 173 31 354 101 494 191 91 59 258 226
322 322 80 122 166 344 166 430 0 31 -2 33 -32 32 -18 0 -49 -6 -68 -13z m50
-50 c0 -43 -44 -195 -75 -261 -32 -69 -137 -214 -199 -276 -262 -263 -662
-385 -1104 -339 -211 22 -582 164 -582 222 0 4 11 10 24 14 16 4 62 -11 147
-49 68 -30 180 -69 249 -88 125 -34 126 -34 350 -34 238 0 284 6 445 58 184
59 396 214 510 372 63 89 164 318 165 376 0 13 35 34 63 38 4 1 7 -14 7 -33z"/>
<path d="M2286 2497 c-18 -13 -17 -15 3 -55 11 -22 18 -47 16 -55 -4 -8 4 -18
20 -25 33 -15 33 -2 -4 65 -29 53 -27 63 15 63 15 0 117 -206 109 -221 -10
-15 -24 -11 -99 25 -85 40 -116 51 -116 38 0 -13 40 -102 46 -102 2 0 2 11 -2
25 -9 35 13 33 88 -7 46 -24 64 -29 76 -21 32 19 25 58 -33 172 -46 93 -59
111 -78 111 -13 0 -31 -6 -41 -13z"/>
<path d="M2610 2455 c0 -39 -1 -39 36 -25 l27 11 -23 24 c-32 34 -40 31 -40
-10z"/>
<path d="M2128 2443 c-35 -8 -29 -41 27 -152 43 -88 60 -112 80 -117 28 -7 55
10 55 33 0 11 -4 13 -12 6 -41 -31 -47 -26 -102 90 -54 112 -56 133 -13 123 9
-2 17 -2 17 0 0 8 -36 20 -52 17z"/>
<path d="M3115 2286 c-143 -51 -420 -148 -615 -216 -453 -157 -420 -144 -420
-174 0 -15 9 -35 21 -47 18 -18 28 -20 62 -15 70 12 1218 406 1244 428 18 14
16 69 -3 96 -8 12 -18 22 -22 21 -4 0 -124 -42 -267 -93z m279 28 c4 -9 5 -18
4 -19 -3 -2 -206 -74 -513 -181 -476 -167 -740 -254 -752 -249 -41 15 2 36
240 117 301 102 659 227 852 296 77 28 145 51 151 51 7 1 15 -6 18 -15z"/>
<path d="M1881 2356 c-7 -8 -14 -74 -18 -160 -6 -134 -5 -146 12 -152 27 -11
68 17 88 59 19 40 36 45 77 22 54 -31 113 -9 91 33 -13 24 -217 212 -230 212
-5 0 -14 -6 -20 -14z m62 -31 c20 -14 37 -29 37 -34 0 -5 32 -35 70 -67 39
-32 70 -62 70 -66 0 -18 -51 -20 -70 -3 -19 17 -22 17 -65 1 -35 -14 -45 -23
-45 -41 0 -22 -17 -35 -46 -35 -10 0 -14 13 -14 43 0 76 13 227 19 227 4 0 23
-11 44 -25z"/>
<path d="M1940 2216 c0 -32 2 -35 22 -27 31 11 33 26 3 45 l-25 16 0 -34z"/>
<path d="M1643 2275 c-24 -17 -43 -71 -43 -122 0 -17 -5 -33 -12 -35 -7 -3 -6
-7 5 -11 13 -5 17 -1 17 22 0 36 28 117 45 131 11 9 24 -11 70 -106 30 -64 54
-118 53 -119 -2 -1 -13 -7 -25 -14 -19 -10 -24 -7 -41 22 -11 17 -23 42 -27
55 -6 20 -25 32 -25 15 0 -5 -9 -23 -20 -41 l-20 -32 -41 20 c-22 12 -43 19
-46 17 -2 -3 7 -28 21 -56 24 -50 24 -51 5 -62 -11 -5 -24 -7 -29 -4 -9 6
-110 212 -110 226 0 14 39 10 73 -8 30 -15 31 -15 18 1 -25 30 -67 47 -94 37
-13 -5 -27 -15 -29 -23 -8 -19 18 -92 65 -188 31 -64 48 -86 64 -88 32 -5 71
25 78 59 5 21 17 35 41 46 33 16 35 16 64 -5 52 -39 106 -18 94 36 -9 39 -107
236 -119 239 -6 2 -20 -4 -32 -12z"/>
<path d="M1161 2025 c-85 -30 -159 -59 -164 -64 -7 -7 -8 -20 -1 -38 14 -42
45 -40 209 12 116 37 148 51 156 68 13 30 -4 77 -28 76 -10 0 -87 -24 -172
-54z m179 31 c0 -2 3 -11 6 -19 4 -11 -14 -21 -73 -40 -167 -54 -226 -68 -235
-59 -14 14 -1 32 25 33 12 0 76 20 142 44 125 45 135 48 135 41z"/>
</g>
</svg>
